Coordinates
version=1
nRows=13
nColumns=63
inDegrees=yes

Units are S.I. units (second, meters, Newtons, ...)
If the header above contains a line with 'inDegrees', this indicates whether rotational values are in degrees (yes) or radians (no).

endheader
time	pelvis_tilt	pelvis_list	pelvis_rotation	pelvis_tx	pelvis_ty	pelvis_tz	hip_flexion_r	hip_adduction_r	hip_rotation_r	knee_angle_r	knee_angle_r_beta	ankle_angle_r	subtalar_angle_r	mtp_angle_r	hip_flexion_l	hip_adduction_l	hip_rotation_l	knee_angle_l	knee_angle_l_beta	ankle_angle_l	subtalar_angle_l	mtp_angle_l	L5_S1_Flex_Ext	L5_S1_Lat_Bending	L5_S1_axial_rotation	L4_L5_Flex_Ext	L4_L5_Lat_Bending	L4_L5_axial_rotation	L3_L4_Flex_Ext	L3_L4_Lat_Bending	L3_L4_axial_rotation	L2_L3_Flex_Ext	L2_L3_Lat_Bending	L2_L3_axial_rotation	L1_L2_Flex_Ext	L1_L2_Lat_Bending	L1_L2_axial_rotation	L1_T12_Flex_Ext	L1_T12_Lat_Bending	L1_T12_axial_rotation	Abs_r3	Abs_r2	Abs_r1	Abs_t1	Abs_t2	neck_flexion	neck_bending	neck_rotation	arm_flex_r	arm_add_r	arm_rot_r	elbow_flex_r	pro_sup_r	wrist_flex_r	wrist_dev_r	arm_flex_l	arm_add_l	arm_rot_l	elbow_flex_l	pro_sup_l	wrist_flex_l	wrist_dev_l
3.066667	0.628262	-9.714070	72.869929	0.224737	0.711914	0.509487	7.006772	6.350990	19.492838	12.189948	0.212755	29.250389	-13.174319	0.000000	1.892699	-2.608091	-12.480103	9.452866	0.164984	34.943173	0.617537	0.000000	0.080150	0.433835	-0.529622	0.148847	0.577001	-0.562723	0.131679	1.054826	-0.562723	0.091604	1.054826	-0.463419	0.074427	0.884676	-0.430317	0.045798	0.672010	-0.397216	0.572505	4.907628	-2.945596	0.000000	0.000000	27.025515	0.348732	5.924943	63.591538	-19.157009	10.749324	107.124939	86.872250	-15.465399	4.047138	82.426191	-12.877817	40.771729	91.948183	62.128666	-13.604958	-6.219198
3.083333	0.848212	-9.398503	73.906617	0.224152	0.712702	0.507747	6.383604	6.379416	19.211562	11.812019	0.206159	29.111997	-13.638300	0.000000	1.540596	-2.742216	-11.721289	9.476792	0.165401	34.800934	0.637769	0.000000	0.067989	0.447301	-0.642143	0.126262	0.594911	-0.682277	0.111699	1.087569	-0.682277	0.077705	1.087569	-0.561875	0.063135	0.912137	-0.521741	0.038849	0.692870	-0.481607	0.485639	5.059962	-3.571407	0.000000	0.000000	26.676705	0.161448	5.881112	62.622447	-19.318857	10.198517	107.894608	86.805665	-15.220832	3.956740	82.440314	-12.906925	41.204070	92.022916	63.656365	-13.919496	-6.261474
3.100000	1.050882	-9.029895	74.862037	0.223601	0.713513	0.506017	5.716102	6.391073	18.882999	11.469817	0.200186	28.944382	-14.021938	0.000000	1.104717	-2.849525	-11.134783	9.441716	0.164789	34.668582	0.737122	0.000000	0.054637	0.460622	-0.755380	0.101466	0.612627	-0.802591	0.089763	1.119955	-0.802591	0.062444	1.119955	-0.660958	0.050736	0.939299	-0.613746	0.031219	0.713503	-0.566535	0.390265	5.210643	-4.201198	0.000000	0.000000	26.258160	-0.056682	6.005432	61.535467	-19.413733	9.729291	108.661156	86.692796	-15.136510	3.865152	82.220930	-12.996167	41.436103	92.243568	65.449494	-14.141883	-6.284305
3.116667	1.226195	-8.627601	75.713676	0.223142	0.714293	0.504320	5.023864	6.382124	18.535365	11.162538	0.194823	28.742761	-14.361650	0.000000	0.609646	-2.923150	-10.687404	9.352402	0.163230	34.547090	0.854071	0.000000	0.042537	0.472638	-0.869014	0.078996	0.628608	-0.923328	0.069885	1.149171	-0.923328	0.048616	1.149171	-0.760387	0.039500	0.963803	-0.706074	0.024306	0.732116	-0.651761	0.303840	5.346572	-4.833196	0.000000	0.000000	25.767667	-0.241379	6.334310	60.310556	-19.414607	9.340765	109.433148	86.469323	-15.227323	3.847542	81.699844	-13.159724	41.389082	92.673649	67.718883	-14.296660	-6.117499
3.133333	1.367108	-8.203629	76.416900	0.222834	0.715011	0.502676	4.321717	6.339345	18.145435	10.887211	0.190018	28.535228	-14.563402	0.000000	0.060588	-2.947069	-10.304764	9.195871	0.160498	34.416710	0.848594	0.000000	0.032576	0.480903	-0.966470	0.060496	0.639602	-1.026874	0.053519	1.169269	-1.026874	0.037231	1.169269	-0.845661	0.030250	0.980658	-0.785257	0.018614	0.744919	-0.724852	0.232685	5.440075	-5.375214	0.000000	0.000000	25.221869	-0.364707	6.710727	58.893500	-19.351570	8.963651	110.242141	86.237623	-15.439784	3.975870	80.852387	-13.326960	41.074740	93.258095	69.868028	-14.203302	-5.739336
3.150000	1.490519	-7.742515	76.965184	0.222681	0.715645	0.501176	3.609486	6.301351	17.853643	10.686393	0.186513	28.306437	-14.842745	0.000000	-0.538334	-2.948428	-10.066513	9.020783	0.157442	34.337117	0.828783	0.000000	0.017035	0.488976	-1.058478	0.031635	0.650338	-1.124632	0.027986	1.188896	-1.124632	0.019469	1.188896	-0.926168	0.015819	0.997119	-0.860013	0.009734	0.757423	-0.793858	0.121678	5.531392	-5.886935	0.000000	0.000000	24.697905	-0.472695	7.334078	57.418957	-19.253216	8.803410	111.048499	85.986204	-15.977932	4.330963	79.691274	-13.624822	40.590418	94.055370	70.494014	-13.762483	-5.238938
3.166667	1.582222	-7.272752	77.292743	0.222780	0.716160	0.499814	2.925043	6.255823	17.650239	10.561854	0.184339	28.113991	-15.074652	0.000000	-1.173889	-2.909868	-9.950387	8.807568	0.153721	34.270658	0.695668	0.000000	0.001583	0.492560	-1.117017	0.002940	0.655104	-1.186831	0.002601	1.197609	-1.186831	0.001810	1.197609	-0.977390	0.001470	1.004428	-0.907576	0.000905	0.762975	-0.837763	0.011310	5.571933	-6.212513	0.000000	0.000000	24.168952	-0.463389	7.942436	55.756086	-19.158625	8.707824	111.857764	85.808323	-16.660147	4.762798	78.223512	-13.932358	39.924876	94.956261	71.027880	-13.057552	-4.613055
3.183333	1.671481	-6.802938	77.500568	0.223000	0.716559	0.498540	2.245101	6.212263	17.480304	10.461740	0.182592	27.943168	-15.308732	0.000000	-1.824778	-2.861032	-9.863955	8.595070	0.150012	34.233327	0.466581	0.000000	-0.014570	0.492429	-1.140881	-0.027058	0.654931	-1.212186	-0.023937	1.197293	-1.212186	-0.016652	1.197293	-0.998271	-0.013530	1.004162	-0.926966	-0.008325	0.762773	-0.855661	-0.104072	5.570459	-6.345240	0.000000	0.000000	23.653771	-0.356442	8.328398	53.814761	-19.160174	8.577197	112.711490	85.717280	-17.402136	5.191722	76.489460	-14.149444	39.194042	95.896009	71.731895	-12.207259	-3.878042
3.200000	1.761356	-6.347065	77.593659	0.223321	0.716837	0.497371	1.593839	6.180811	17.357578	10.393260	0.181397	27.809628	-15.549332	0.000000	-2.470943	-2.809799	-9.803196	8.396200	0.146541	34.212409	0.151527	0.000000	-0.029878	0.488929	-1.125586	-0.055487	0.650276	-1.195936	-0.049087	1.188782	-1.195936	-0.034148	1.188782	-0.984888	-0.027745	0.997024	-0.914539	-0.017072	0.757351	-0.844190	-0.213416	5.530862	-6.260174	0.000000	0.000000	23.139339	-0.160268	8.448706	51.538144	-19.256159	8.379845	113.597744	85.725523	-18.121468	5.533093	74.480823	-14.300611	38.510443	96.903539	72.655833	-11.307036	-3.087612
3.216667	1.852492	-5.917475	77.561884	0.223752	0.716994	0.496329	0.990763	6.170251	17.293930	10.361535	0.180843	27.722375	-15.762909	0.000000	-3.101235	-2.763637	-9.784897	8.214434	0.143369	34.206607	-0.232047	0.000000	-0.043742	0.482714	-1.061305	-0.081233	0.642010	-1.127637	-0.071863	1.173671	-1.127637	-0.049993	1.173671	-0.928642	-0.040619	0.984350	-0.862310	-0.024994	0.747724	-0.795979	-0.312443	5.460557	-5.902661	0.000000	0.000000	22.616951	0.094840	8.314580	48.873664	-19.413003	8.059376	114.517933	85.865191	-18.720801	5.785626	72.171756	-14.414301	37.989742	97.996607	73.792999	-10.391657	-2.311262
3.233333	1.965236	-5.520337	77.562540	0.224093	0.717040	0.495372	0.428097	6.191976	17.172568	10.335265	0.180384	27.653430	-15.973984	0.000000	-3.673239	-2.746807	-9.619942	8.087410	0.141152	34.210795	-0.726675	0.000000	-0.056839	0.477115	-0.979217	-0.105556	0.634564	-1.040418	-0.093381	1.160058	-1.040418	-0.064962	1.160058	-0.856815	-0.052781	0.972934	-0.795614	-0.032478	0.739052	-0.734413	-0.405998	5.397225	-5.446112	0.000000	0.000000	22.092586	0.366666	7.974316	45.850522	-19.578228	7.635743	115.440971	86.127308	-19.046169	6.112487	69.491196	-14.559483	37.673095	99.213907	75.087696	-9.516883	-1.590203
3.250000	2.074344	-5.179491	77.549901	0.224454	0.716938	0.494442	-0.072889	6.228309	17.076908	10.311028	0.179961	27.604657	-16.183557	0.000000	-4.171820	-2.742319	-9.408391	8.004683	0.139708	34.248791	-1.254398	0.000000	-0.065003	0.470313	-0.865749	-0.120718	0.625517	-0.919858	-0.106794	1.143520	-0.919858	-0.074292	1.143520	-0.757530	-0.060362	0.959063	-0.703421	-0.037143	0.728515	-0.649312	-0.464312	5.320279	-4.815035	0.000000	0.000000	21.545394	0.606958	7.429581	42.434961	-19.652883	7.065933	116.355610	86.637746	-19.147306	6.608175	66.388688	-14.769935	37.634658	100.526728	76.690732	-8.962622	-1.015644
3.266667	2.188236	-4.903189	77.619421	0.224729	0.716667	0.493561	-0.505263	6.292380	16.925749	10.278324	0.179391	27.574373	-16.366417	0.000000	-4.559515	-2.770980	-9.070312	7.986916	0.139398	34.337402	-1.789454	0.000000	-0.068877	0.464432	-0.745441	-0.127912	0.617695	-0.792031	-0.113159	1.129221	-0.792031	-0.078720	1.129221	-0.652261	-0.063960	0.947071	-0.605671	-0.039357	0.719406	-0.559081	-0.491985	5.253753	-4.145921	0.000000	0.000000	21.023019	0.817847	6.800949	38.730949	-19.628706	6.469850	117.177876	86.922270	-19.032286	7.308130	62.851978	-15.057404	37.765668	101.825728	78.315484	-8.296561	-0.503538
